<?xml version="1.0" standalone="no"?>
<!DOCTYPE svg PUBLIC "-//W3C//DTD SVG 20010904//EN"
 "http://www.w3.org/TR/2001/REC-SVG-20010904/DTD/svg10.dtd">
<svg version="1.0" xmlns="http://www.w3.org/2000/svg"
 width="593.000000pt" height="460.000000pt" viewBox="0 0 593.000000 460.000000"
 preserveAspectRatio="xMidYMid meet">

<g transform="translate(0.000000,460.000000) scale(0.100000,-0.100000)"
fill="#000000" stroke="none">
<path d="M3350 4200 c47 -3 79 -7 73 -8 -16 -2 -18 -122 -3 -122 16 0 12 -26
-6 -41 -10 -8 -14 -22 -10 -40 5 -27 4 -28 -47 -32 -35 -2 -23 -4 36 -5 66 -2
88 -5 85 -14 -3 -8 -31 -15 -69 -19 -35 -3 -54 -6 -41 -7 12 -1 22 -8 22 -16
0 -8 10 -17 23 -20 12 -2 3 -4 -20 -3 -24 2 -43 0 -43 -4 0 -10 179 -19 369
-19 l174 0 -5 68 c-9 119 -72 207 -188 261 -53 25 -63 26 -245 27 -135 1 -165
-1 -105 -6z"/>
<path d="M490 3583 c-8 -3 -31 -21 -51 -39 -35 -34 -35 -35 -54 -14 -10 11
-24 20 -30 20 -19 0 -48 -69 -53 -127 -5 -64 10 -106 49 -134 30 -21 41 -12
14 11 -19 16 -19 54 0 70 12 10 20 9 40 -4 33 -21 35 -21 35 12 l0 27 74 -3
c83 -4 141 9 180 39 34 27 36 75 4 84 -13 4 -58 20 -100 36 -81 30 -84 31
-108 22z"/>
<path d="M5133 3525 c-90 -20 -117 -35 -121 -67 -4 -35 25 -64 80 -78 49 -13
78 -35 78 -60 0 -9 6 -25 14 -35 14 -19 15 -19 27 8 23 52 53 27 42 -36 -4
-28 -1 -37 13 -45 28 -14 89 -23 108 -16 31 12 59 84 64 166 4 72 3 78 -22
103 -21 21 -32 25 -56 20 -24 -5 -34 -2 -53 20 -28 34 -86 40 -174 20z"/>
<path d="M565 3370 c-8 -13 25 -13 45 0 12 8 9 10 -12 10 -15 0 -30 -4 -33
-10z"/>
<path d="M5120 3340 c0 -6 7 -10 15 -10 8 0 15 2 15 4 0 2 -7 6 -15 10 -8 3
-15 1 -15 -4z"/>
<path d="M5357 3114 c-17 -17 -5 -34 24 -34 24 0 30 4 27 18 -3 17 -38 29 -51
16z"/>
<path d="M4483 2823 c-24 -14 -43 -29 -43 -35 0 -5 38 -60 84 -122 90 -120
167 -196 198 -196 11 0 17 -4 13 -9 -8 -14 31 -24 63 -16 25 5 28 10 24 35 -3
20 -11 30 -28 34 -19 5 -24 13 -24 41 0 25 -5 35 -20 40 -25 8 -26 22 -2 28
26 6 -34 29 -80 31 -30 1 -37 -2 -35 -18 2 -22 -24 -41 -47 -33 -10 4 -16 18
-16 36 0 23 5 30 23 33 18 2 22 9 22 38 1 39 -12 63 -28 53 -6 -3 -7 -1 -3 6
4 6 0 14 -8 17 -9 3 -14 9 -11 14 2 4 -6 16 -18 28 l-22 20 -42 -25z"/>
<path d="M4601 2631 c-8 -6 -9 -11 -3 -15 6 -3 14 -1 17 5 9 14 2 20 -14 10z"/>
<path d="M3810 1407 c0 -768 -3 -1101 -11 -1132 -14 -56 -79 -131 -134 -156
-33 -15 -69 -19 -195 -20 -85 -1 -139 -4 -120 -6 61 -6 80 -13 80 -28 0 -8 -6
-15 -12 -16 -23 -1 26 -18 62 -21 19 -1 -68 -5 -195 -8 l-230 -6 295 0 295 1
56 26 c66 31 128 90 161 151 l23 43 3 1128 c1 620 -1 1127 -5 1128 -5 0 -23 1
-41 2 l-32 2 0 -1088z"/>
<path d="M5671 2124 c0 -11 3 -14 6 -6 3 7 2 16 -1 19 -3 4 -6 -2 -5 -13z"/>
<path d="M116 1943 c3 -87 16 -513 29 -947 18 -636 25 -790 36 -797 21 -13
103 -11 121 3 12 10 25 117 64 496 27 265 52 482 55 482 3 0 11 -219 19 -487
7 -269 15 -490 17 -493 7 -8 130 -6 138 2 4 4 36 288 71 630 34 343 77 762 95
931 17 169 29 310 27 313 -3 3 -34 0 -69 -6 -92 -14 -277 -12 -446 5 -80 9
-150 18 -154 21 -5 3 -6 -66 -3 -153z"/>
<path d="M5670 2082 c0 -14 -13 -18 -160 -43 -111 -19 -196 -24 -440 -24 -6 0
-23 -238 -30 -433 -12 -290 -1 -805 25 -1162 8 -113 15 -208 15 -212 0 -5 29
-8 65 -8 61 0 65 1 65 23 0 118 62 894 85 1077 26 193 70 400 86 400 5 0 9
-26 9 -57 0 -125 61 -579 116 -858 61 -309 128 -561 154 -575 9 -5 40 -12 68
-16 61 -8 58 -17 37 122 -36 248 -60 681 -74 1352 -5 228 -12 416 -15 420 -3
3 -6 0 -6 -6z"/>
<path d="M5108 2023 c6 -2 18 -2 25 0 6 3 1 5 -13 5 -14 0 -19 -2 -12 -5z"/>
<path d="M3040 650 c30 -4 45 -7 33 -8 -12 -1 -21 -8 -19 -14 1 -7 1 -10 -1
-5 -3 4 -14 7 -25 7 -17 0 -19 -4 -14 -32 3 -18 7 -39 8 -45 1 -9 19 -13 55
-13 l53 0 0 -69 c0 -83 -14 -104 -69 -99 -34 3 -56 -12 -30 -21 7 -2 9 1 5 8
-4 6 -2 11 3 11 6 0 11 -11 11 -24 0 -19 -6 -26 -27 -29 -16 -2 24 -5 88 -6
78 -1 119 3 127 11 15 15 17 291 2 319 -10 17 -21 19 -133 17 -95 -1 -110 -3
-67 -8z m27 -86 c-3 -3 -12 -4 -19 -1 -8 3 -5 6 6 6 11 1 17 -2 13 -5z"/>
<path d="M3002 490 c0 -19 2 -27 5 -17 2 9 2 25 0 35 -3 9 -5 1 -5 -18z"/>
<path d="M2963 470 c0 -25 2 -35 4 -22 2 12 2 32 0 45 -2 12 -4 2 -4 -23z"/>
<path d="M3057 504 c-13 -13 -7 -42 10 -48 21 -8 36 6 31 30 -3 19 -29 30 -41
18z m24 -19 c7 19 8 18 8 -3 1 -25 -23 -26 -25 -1 -1 11 0 10 4 -1 4 -12 6
-11 13 5z"/>
<path d="M3010 427 c20 -22 81 -27 87 -7 3 11 2 12 -5 2 -6 -9 -15 -10 -35 -3
-15 6 -27 8 -27 5 0 -4 -8 -1 -17 7 -16 12 -17 11 -3 -4z"/>
<path d="M5725 168 c-10 -6 -33 -15 -50 -19 -30 -7 -30 -7 -3 -8 30 -1 78 18
78 31 0 10 -1 10 -25 -4z"/>
<path d="M151 148 c-5 -14 -7 -44 -4 -68 9 -68 23 -71 353 -68 196 2 283 6
291 15 9 8 -56 11 -269 10 -155 -1 -284 2 -287 5 -4 3 -1 17 6 29 10 19 9 24
-2 28 -8 2 -28 20 -46 39 l-32 35 -10 -25z"/>
<path d="M435 139 c-9 -27 7 -43 34 -34 17 5 19 9 9 31 -14 30 -34 31 -43 3z"/>
<path d="M5138 144 c-16 -8 -28 -16 -28 -19 0 -7 63 14 74 25 15 15 -14 12
-46 -6z"/>
<path d="M5590 65 c-42 -16 -129 -19 -164 -5 -17 6 -26 6 -26 0 0 -23 61 -33
215 -33 152 1 160 2 163 20 2 14 -4 22 -20 27 -39 10 -131 5 -168 -9z"/>
<path d="M5010 50 c-64 -18 -115 -18 -154 2 -14 8 -17 7 -14 -4 8 -25 68 -34
221 -32 144 1 152 2 155 21 6 37 -98 43 -208 13z"/>
</g>
</svg>
